<svg width="139" height="31" viewBox="0 0 139 31" fill="none" xmlns="http://www.w3.org/2000/svg">
<path d="M11.072 24.288C8.08533 24.288 5.696 23.6267 3.904 22.304C2.112 20.96 1.06667 19.072 0.768 16.64H5.504C5.65333 17.8773 6.25067 18.8587 7.296 19.584C8.34133 20.288 9.67467 20.64 11.296 20.64C12.6187 20.64 13.632 20.4053 14.336 19.936C15.0613 19.4667 15.424 18.8373 15.424 18.048C15.424 17.3013 15.2107 16.704 14.784 16.256C14.3573 15.7867 13.6213 15.4133 12.576 15.136L8.288 13.952C6.09067 13.3333 4.48 12.4907 3.456 11.424C2.45333 10.336 1.952 8.98133 1.952 7.36C1.952 5.97333 2.304 4.77867 3.008 3.776C3.73333 2.752 4.74667 1.97333 6.048 1.44C7.34933 0.885333 8.87467 0.608 10.624 0.608C13.312 0.608 15.456 1.248 17.056 2.528C18.656 3.78667 19.5627 5.46133 19.776 7.552H15.04C14.8267 6.42133 14.304 5.58933 13.472 5.056C12.6613 4.52267 11.616 4.256 10.336 4.256C9.22667 4.256 8.34133 4.46933 7.68 4.896C7.01867 5.32267 6.688 5.89867 6.688 6.624C6.688 7.17867 6.86933 7.69067 7.232 8.16C7.59467 8.608 8.352 8.992 9.504 9.312L13.792 10.496C16.0533 11.1147 17.6747 11.968 18.656 13.056C19.6587 14.1227 20.16 15.4773 20.16 17.12C20.16 19.424 19.36 21.1947 17.76 22.432C16.16 23.6693 13.9307 24.288 11.072 24.288ZM23.627 30.56L28.139 20.576L28.971 19.2L33.195 7.68H38.315L28.427 30.56H23.627ZM27.083 23.68L20.811 7.68H25.995L31.147 22.272L27.083 23.68ZM40.17 24V7.68H44.874V11.52H44.97V24H40.17ZM51.53 24V13.888C51.53 12.992 51.2953 12.32 50.826 11.872C50.378 11.424 49.7167 11.2 48.842 11.2C48.0953 11.2 47.4233 11.3707 46.826 11.712C46.25 12.0533 45.7913 12.5227 45.45 13.12C45.13 13.7173 44.97 14.4213 44.97 15.232L44.554 11.296C45.0873 10.1013 45.866 9.152 46.89 8.448C47.9353 7.72267 49.2153 7.36 50.73 7.36C52.5433 7.36 53.93 7.872 54.89 8.896C55.85 9.89867 56.33 11.2533 56.33 12.96V24H51.53ZM67.039 24.352C64.9483 24.352 63.391 23.8507 62.367 22.848C61.3643 21.824 60.863 20.2773 60.863 18.208V4.032L65.663 2.24V18.368C65.663 19.0933 65.8657 19.6373 66.271 20C66.6763 20.3627 67.3057 20.544 68.159 20.544C68.479 20.544 68.7777 20.512 69.055 20.448C69.3323 20.384 69.6097 20.3093 69.887 20.224V23.872C69.6097 24.0213 69.215 24.1387 68.703 24.224C68.2123 24.3093 67.6577 24.352 67.039 24.352ZM57.823 11.328V7.68H69.887V11.328H57.823ZM82.7233 24C82.5953 23.5307 82.4993 23.0293 82.4353 22.496C82.3926 21.9627 82.3713 21.344 82.3713 20.64H82.2433V12.928C82.2433 12.2667 82.0193 11.7547 81.5713 11.392C81.1446 11.008 80.5046 10.816 79.6513 10.816C78.8406 10.816 78.1899 10.9547 77.6993 11.232C77.2299 11.5093 76.9206 11.9147 76.7713 12.448H72.1953C72.4086 10.976 73.1659 9.76 74.4673 8.8C75.7686 7.84 77.5499 7.36 79.8113 7.36C82.1579 7.36 83.9499 7.88267 85.1873 8.928C86.4246 9.97333 87.0433 11.4773 87.0433 13.44V20.64C87.0433 21.1733 87.0753 21.7173 87.1393 22.272C87.2246 22.8053 87.3526 23.3813 87.5233 24H82.7233ZM77.0273 24.32C75.4059 24.32 74.1153 23.9147 73.1553 23.104C72.1953 22.272 71.7153 21.1733 71.7153 19.808C71.7153 18.2933 72.2806 17.0773 73.4113 16.16C74.5633 15.2213 76.1633 14.6133 78.2113 14.336L82.9793 13.664V16.448L79.0113 17.056C78.1579 17.184 77.5286 17.4187 77.1233 17.76C76.7179 18.1013 76.5153 18.5707 76.5153 19.168C76.5153 19.7013 76.7073 20.1067 77.0913 20.384C77.4753 20.6613 77.9873 20.8 78.6273 20.8C79.6299 20.8 80.4833 20.5333 81.1873 20C81.8913 19.4453 82.2433 18.8053 82.2433 18.08L82.6913 20.64C82.2219 21.856 81.5073 22.7733 80.5473 23.392C79.5873 24.0107 78.4139 24.32 77.0273 24.32ZM100.966 24L96.134 16.832L89.19 7.68H94.566L98.886 14.112L106.342 24H100.966ZM96.518 13.856L100.838 7.68H106.086L98.79 17.216L96.518 13.856ZM98.374 17.472L93.734 24H88.518L96.102 14.112L98.374 17.472ZM108.233 24V7.68H113.033V24H108.233ZM108.073 5.504V0.32H113.193V5.504H108.073ZM126.661 24C126.533 23.5307 126.437 23.0293 126.373 22.496C126.33 21.9627 126.309 21.344 126.309 20.64H126.181V12.928C126.181 12.2667 125.957 11.7547 125.509 11.392C125.082 11.008 124.442 10.816 123.589 10.816C122.778 10.816 122.127 10.9547 121.637 11.232C121.167 11.5093 120.858 11.9147 120.709 12.448H116.133C116.346 10.976 117.103 9.76 118.405 8.8C119.706 7.84 121.487 7.36 123.749 7.36C126.095 7.36 127.887 7.88267 129.125 8.928C130.362 9.97333 130.981 11.4773 130.981 13.44V20.64C130.981 21.1733 131.013 21.7173 131.077 22.272C131.162 22.8053 131.29 23.3813 131.461 24H126.661ZM120.965 24.32C119.343 24.32 118.053 23.9147 117.093 23.104C116.133 22.272 115.653 21.1733 115.653 19.808C115.653 18.2933 116.218 17.0773 117.349 16.16C118.501 15.2213 120.101 14.6133 122.149 14.336L126.917 13.664V16.448L122.949 17.056C122.095 17.184 121.466 17.4187 121.061 17.76C120.655 18.1013 120.453 18.5707 120.453 19.168C120.453 19.7013 120.645 20.1067 121.029 20.384C121.413 20.6613 121.925 20.8 122.565 20.8C123.567 20.8 124.421 20.5333 125.125 20C125.829 19.4453 126.181 18.8053 126.181 18.08L126.629 20.64C126.159 21.856 125.445 22.7733 124.485 23.392C123.525 24.0107 122.351 24.32 120.965 24.32ZM133.451 24V18.72H138.731V24H133.451Z" fill="black"/>
</svg>
